<svg width="69" height="22" viewBox="0 0 69 22" fill="none" xmlns="http://www.w3.org/2000/svg">
<path d="M0.075922 17V1.6H2.20992L11.6259 14.206L11.2739 14.404C11.2153 14.0373 11.1639 13.6413 11.1199 13.216C11.0759 12.776 11.0319 12.314 10.9879 11.83C10.9586 11.3313 10.9293 10.8107 10.8999 10.268C10.8853 9.71067 10.8706 9.13133 10.8559 8.53C10.8413 7.92867 10.8339 7.30533 10.8339 6.66V1.6H13.2099V17H11.0319L1.76992 4.856L2.01192 4.548C2.08526 5.44267 2.14392 6.20533 2.18792 6.836C2.24659 7.452 2.29059 7.98 2.31992 8.42C2.36392 8.84533 2.39326 9.19733 2.40792 9.476C2.42259 9.74 2.42992 9.96 2.42992 10.136C2.44459 10.312 2.45192 10.466 2.45192 10.598V17H0.075922ZM21.3932 17.22C20.4399 17.22 19.5672 16.956 18.7752 16.428C17.9979 15.9 17.3746 15.1813 16.9052 14.272C16.4359 13.3627 16.2012 12.336 16.2012 11.192C16.2012 10.0333 16.4359 9.00667 16.9052 8.112C17.3892 7.20267 18.0346 6.49133 18.8412 5.978C19.6626 5.46467 20.5792 5.208 21.5912 5.208C22.1926 5.208 22.7426 5.296 23.2412 5.472C23.7399 5.648 24.1726 5.89733 24.5392 6.22C24.9206 6.528 25.2286 6.88733 25.4632 7.298C25.7126 7.70867 25.8666 8.14867 25.9252 8.618L25.4192 8.442V5.45H27.7072V17H25.4192V14.25L25.9472 14.096C25.8592 14.492 25.6759 14.8807 25.3972 15.262C25.1332 15.6287 24.7886 15.9587 24.3632 16.252C23.9526 16.5453 23.4906 16.78 22.9772 16.956C22.4786 17.132 21.9506 17.22 21.3932 17.22ZM21.9872 15.13C22.6766 15.13 23.2852 14.9613 23.8132 14.624C24.3412 14.2867 24.7519 13.8247 25.0452 13.238C25.3532 12.6367 25.5072 11.9547 25.5072 11.192C25.5072 10.444 25.3532 9.77667 25.0452 9.19C24.7519 8.60333 24.3412 8.14133 23.8132 7.804C23.2852 7.46667 22.6766 7.298 21.9872 7.298C21.3126 7.298 20.7112 7.46667 20.1832 7.804C19.6699 8.14133 19.2592 8.60333 18.9512 9.19C18.6579 9.77667 18.5112 10.444 18.5112 11.192C18.5112 11.9547 18.6579 12.6367 18.9512 13.238C19.2592 13.8247 19.6699 14.2867 20.1832 14.624C20.7112 14.9613 21.3126 15.13 21.9872 15.13ZM30.8711 21.84V5.45H33.1591V8.09L32.8071 7.892C32.8951 7.452 33.1444 7.034 33.5551 6.638C33.9658 6.22733 34.4644 5.89733 35.0511 5.648C35.6524 5.384 36.2684 5.252 36.8991 5.252C37.9404 5.252 38.8644 5.50867 39.6711 6.022C40.4778 6.53533 41.1158 7.23933 41.5851 8.134C42.0544 9.02867 42.2891 10.0553 42.2891 11.214C42.2891 12.358 42.0544 13.3847 41.5851 14.294C41.1304 15.1887 40.4998 15.9 39.6931 16.428C38.8864 16.9413 37.9771 17.198 36.9651 17.198C36.2904 17.198 35.6378 17.066 35.0071 16.802C34.3764 16.5233 33.8411 16.1713 33.4011 15.746C32.9611 15.3207 32.6898 14.8807 32.5871 14.426L33.1591 14.118V21.84H30.8711ZM36.5911 15.108C37.2658 15.108 37.8671 14.9393 38.3951 14.602C38.9231 14.2647 39.3411 13.8027 39.6491 13.216C39.9571 12.6293 40.1111 11.962 40.1111 11.214C40.1111 10.466 39.9571 9.806 39.6491 9.234C39.3558 8.64733 38.9451 8.18533 38.4171 7.848C37.8891 7.51067 37.2804 7.342 36.5911 7.342C35.9018 7.342 35.2931 7.51067 34.7651 7.848C34.2371 8.17067 33.8191 8.62533 33.5111 9.212C33.2031 9.79867 33.0491 10.466 33.0491 11.214C33.0491 11.962 33.2031 12.6293 33.5111 13.216C33.8191 13.8027 34.2371 14.2647 34.7651 14.602C35.2931 14.9393 35.9018 15.108 36.5911 15.108ZM50.14 17.22C48.952 17.22 47.896 16.9707 46.972 16.472C46.0627 15.9587 45.344 15.262 44.816 14.382C44.3027 13.502 44.046 12.49 44.046 11.346C44.046 10.4367 44.1927 9.608 44.486 8.86C44.7793 8.112 45.1827 7.46667 45.696 6.924C46.224 6.36667 46.8473 5.94133 47.566 5.648C48.2993 5.34 49.0913 5.186 49.942 5.186C50.69 5.186 51.3867 5.33267 52.032 5.626C52.6773 5.90467 53.2347 6.29333 53.704 6.792C54.188 7.29067 54.5547 7.88467 54.804 8.574C55.068 9.24867 55.1927 9.98933 55.178 10.796L55.156 11.764H45.718L45.212 9.96H53.198L52.868 10.334V9.806C52.824 9.322 52.6627 8.88933 52.384 8.508C52.1053 8.12667 51.7533 7.826 51.328 7.606C50.9027 7.386 50.4407 7.276 49.942 7.276C49.15 7.276 48.4827 7.43 47.94 7.738C47.3973 8.03133 46.9867 8.47133 46.708 9.058C46.4293 9.63 46.29 10.3413 46.29 11.192C46.29 11.9987 46.4587 12.7027 46.796 13.304C47.1333 13.8907 47.61 14.3453 48.226 14.668C48.842 14.9907 49.5533 15.152 50.36 15.152C50.932 15.152 51.46 15.0567 51.944 14.866C52.4427 14.6753 52.978 14.3307 53.55 13.832L54.694 15.438C54.342 15.79 53.9093 16.098 53.396 16.362C52.8973 16.626 52.362 16.8387 51.79 17C51.2327 17.1467 50.6827 17.22 50.14 17.22ZM62.4586 17.22C61.4026 17.22 60.4566 16.9633 59.6206 16.45C58.7993 15.922 58.1466 15.2107 57.6626 14.316C57.1786 13.4067 56.9366 12.3727 56.9366 11.214C56.9366 10.0553 57.1713 9.02867 57.6406 8.134C58.1246 7.22467 58.7773 6.51333 59.5986 6C60.42 5.472 61.3513 5.208 62.3926 5.208C62.9646 5.208 63.5146 5.30333 64.0426 5.494C64.5853 5.67 65.0693 5.91933 65.4946 6.242C65.92 6.55 66.25 6.89467 66.4846 7.276C66.734 7.64267 66.8586 8.01667 66.8586 8.398L66.1986 8.442V0.72H68.4646V17H66.1986V14.25H66.6386C66.6386 14.602 66.5213 14.954 66.2866 15.306C66.052 15.6433 65.7366 15.9587 65.3406 16.252C64.9593 16.5453 64.512 16.78 63.9986 16.956C63.5 17.132 62.9866 17.22 62.4586 17.22ZM62.7666 15.262C63.456 15.262 64.0646 15.086 64.5926 14.734C65.1206 14.382 65.5313 13.9053 65.8246 13.304C66.1326 12.688 66.2866 11.9913 66.2866 11.214C66.2866 10.4367 66.1326 9.74733 65.8246 9.146C65.5313 8.53 65.1206 8.046 64.5926 7.694C64.0646 7.342 63.456 7.166 62.7666 7.166C62.0773 7.166 61.4686 7.342 60.9406 7.694C60.4126 8.046 59.9946 8.53 59.6866 9.146C59.3933 9.74733 59.2466 10.4367 59.2466 11.214C59.2466 11.9913 59.3933 12.688 59.6866 13.304C59.9946 13.9053 60.4126 14.382 60.9406 14.734C61.4686 15.086 62.0773 15.262 62.7666 15.262Z" fill="#8257E6"/>
</svg>
